<?xml version="1.0" encoding="utf-8"?>
<!-- Generator: Adobe Illustrator 27.0.0, SVG Export Plug-In . SVG Version: 6.00 Build 0)  -->
<svg version="1.1" id="Filled" xmlns="http://www.w3.org/2000/svg" xmlns:xlink="http://www.w3.org/1999/xlink" x="0px" y="0px"
	 viewBox="0 0 512 512" style="enable-background:new 0 0 512 512;" xml:space="preserve">
<style type="text/css">
	.st0{fill:#FFFFFF;}
</style>
<path class="st0" d="M42.7,153.1v252.2c0.1,58.9,47.8,106.6,106.7,106.7h213.3c58.9-0.1,106.6-47.8,106.7-106.7V153.1
	c0-23.2-12.6-44.6-32.9-55.9l-170-94.5c-6.4-3.6-14.3-3.6-20.7,0l-170,94.5C55.3,108.5,42.7,129.9,42.7,153.1z M256,117.3
	c17.7,0,32,14.3,32,32s-14.3,32-32,32s-32-14.3-32-32S238.3,117.3,256,117.3z"/>
</svg>
